<svg xmlns="http://www.w3.org/2000/svg" width="960" height="220" viewBox="0 0 960 220" role="img" aria-label="ファッションハナコ 可愛さラボ">
  <defs>
    <linearGradient id="quietBg" x1="68" y1="38" x2="884" y2="174" gradientUnits="userSpaceOnUse">
      <stop offset="0" stop-color="#fffdf9" stop-opacity=".82"/>
      <stop offset=".62" stop-color="#f7f0e7" stop-opacity=".76"/>
      <stop offset="1" stop-color="#eadfd2" stop-opacity=".70"/>
    </linearGradient>
    <filter id="softShadow" x="-8%" y="-20%" width="116%" height="150%">
      <feDropShadow dx="0" dy="8" stdDeviation="9" flood-color="#3e2f28" flood-opacity=".09"/>
    </filter>
  </defs>
  <rect x="50" y="46" width="860" height="128" rx="64" fill="url(#quietBg)" filter="url(#softShadow)"/>
  <rect x="62" y="58" width="836" height="104" rx="52" fill="none" stroke="#b7a596" stroke-width="2.5" opacity=".62"/>
  <circle cx="122" cy="110" r="23" fill="none" stroke="#6f5b4d" stroke-width="4.5" opacity=".72"/>
  <path d="M139 127l22 22" fill="none" stroke="#6f5b4d" stroke-width="4.5" stroke-linecap="round" opacity=".72"/>
  <text x="204" y="102" fill="#6e5a4f" font-family="'Yu Gothic','Hiragino Sans',Meiryo,sans-serif" font-size="28" font-weight="700" letter-spacing="3" opacity=".84">検索</text>
  <text x="298" y="103" fill="#5b463c" font-family="'Yu Mincho','Hiragino Mincho ProN','Yu Gothic',serif" font-size="41" font-weight="700" letter-spacing="4" opacity=".9">ファッションハナコ</text>
  <path d="M294 124h350" fill="none" stroke="#d8cabe" stroke-width="8" stroke-linecap="round" opacity=".38"/>
  <text x="298" y="145" fill="#3f3029" font-family="'Yu Gothic','Hiragino Sans',Meiryo,sans-serif" font-size="34" font-weight="800" letter-spacing="5" opacity=".9">可愛さラボ</text>
  <text x="664" y="145" fill="#7b6658" font-family="Georgia,'Times New Roman',serif" font-size="20" font-style="italic" letter-spacing="2" opacity=".72">Kawaisa Lab</text>
  <g fill="#9a826f" opacity=".42">
    <path d="M824 88c7-14 27-8 23 9-3 10-15 17-23 25-9-8-21-15-24-25-4-17 16-23 24-9z"/>
    <circle cx="855" cy="127" r="5"/>
  </g>
</svg>
