<svg xmlns="http://www.w3.org/2000/svg" width="960" height="240" viewBox="0 0 960 240" role="img" aria-label="ファッションハナコ 可愛さラボ">
  <defs>
    <linearGradient id="searchBg" x1="72" y1="44" x2="884" y2="198" gradientUnits="userSpaceOnUse">
      <stop offset="0" stop-color="#fff8fb"/>
      <stop offset=".55" stop-color="#ffffff"/>
      <stop offset="1" stop-color="#ffe9f1"/>
    </linearGradient>
    <linearGradient id="roseInk" x1="160" y1="66" x2="820" y2="178" gradientUnits="userSpaceOnUse">
      <stop offset="0" stop-color="#8d3a55"/>
      <stop offset=".48" stop-color="#c24d76"/>
      <stop offset="1" stop-color="#e08aa8"/>
    </linearGradient>
    <filter id="softShadow" x="-8%" y="-18%" width="116%" height="150%">
      <feDropShadow dx="0" dy="12" stdDeviation="12" flood-color="#7c3d50" flood-opacity=".16"/>
    </filter>
  </defs>
  <rect x="36" y="38" width="888" height="164" rx="82" fill="url(#searchBg)" filter="url(#softShadow)"/>
  <rect x="47" y="49" width="866" height="142" rx="71" fill="none" stroke="#e9bbca" stroke-width="4"/>
  <circle cx="124" cy="120" r="34" fill="none" stroke="#bf5579" stroke-width="8"/>
  <path d="M149 145l31 31" fill="none" stroke="#bf5579" stroke-width="9" stroke-linecap="round"/>
  <path d="M221 122h430" fill="none" stroke="#f2c4d4" stroke-width="14" stroke-linecap="round" opacity=".58"/>
  <text x="218" y="112" fill="#4b343b" font-family="'Yu Gothic','Hiragino Sans',Meiryo,sans-serif" font-size="34" font-weight="800" letter-spacing="2">検索</text>
  <text x="324" y="113" fill="url(#roseInk)" font-family="'Yu Mincho','Hiragino Mincho ProN','Yu Gothic',serif" font-size="50" font-weight="800" letter-spacing="4">ファッションハナコ</text>
  <text x="318" y="166" fill="#5a3a43" font-family="'Yu Gothic','Hiragino Sans',Meiryo,sans-serif" font-size="44" font-weight="900" letter-spacing="5">可愛さラボ</text>
  <text x="664" y="166" fill="#b45b78" font-family="Georgia,'Times New Roman',serif" font-size="24" font-style="italic" letter-spacing="2">Kawaisa Lab</text>
  <g fill="#d77798">
    <path d="M827 91c9-18 34-10 29 11-3 13-18 22-29 32-11-10-26-19-29-32-5-21 20-29 29-11z"/>
    <circle cx="860" cy="143" r="7"/>
    <circle cx="883" cy="125" r="4.5"/>
  </g>
</svg>
