<svg xmlns="http://www.w3.org/2000/svg" width="960" height="300" viewBox="0 0 960 300" role="img" aria-label="ファッションハナコ 可愛さラボ">
  <defs>
    <linearGradient id="roseInk" x1="120" y1="40" x2="820" y2="260" gradientUnits="userSpaceOnUse">
      <stop offset="0" stop-color="#b13f69"/>
      <stop offset=".45" stop-color="#7b3d4f"/>
      <stop offset="1" stop-color="#d77798"/>
    </linearGradient>
    <linearGradient id="softRibbon" x1="160" y1="210" x2="820" y2="230" gradientUnits="userSpaceOnUse">
      <stop offset="0" stop-color="#f7c9d8" stop-opacity=".25"/>
      <stop offset=".5" stop-color="#f0aeca" stop-opacity=".72"/>
      <stop offset="1" stop-color="#f8dfe8" stop-opacity=".25"/>
    </linearGradient>
    <filter id="paperShadow" x="-10%" y="-10%" width="120%" height="130%">
      <feDropShadow dx="0" dy="8" stdDeviation="9" flood-color="#7c3d50" flood-opacity=".15"/>
    </filter>
  </defs>
  <rect x="28" y="36" width="904" height="228" rx="44" fill="#fffafd" opacity=".92" filter="url(#paperShadow)"/>
  <path d="M117 219c160-29 330-28 506-5 77 10 143 8 221-17" fill="none" stroke="url(#softRibbon)" stroke-width="28" stroke-linecap="round"/>
  <g fill="none" stroke="#d77798" stroke-width="6" stroke-linecap="round" stroke-linejoin="round" opacity=".85">
    <path d="M84 99c31-34 62-34 92 0"/>
    <path d="M130 98c-18 28-34 47-61 55 28 12 62-2 77-28"/>
    <path d="M130 98c18 28 34 47 61 55-28 12-62-2-77-28"/>
  </g>
  <text x="216" y="127" fill="url(#roseInk)" font-family="'Yu Mincho','Hiragino Mincho ProN','Yu Gothic',serif" font-size="54" font-weight="700" letter-spacing="5">ファッションハナコ</text>
  <text x="240" y="202" fill="#4e3740" font-family="'Yu Gothic','Hiragino Sans',sans-serif" font-size="78" font-weight="800" letter-spacing="7">可愛さラボ</text>
  <text x="652" y="238" fill="#b45b78" font-family="Georgia,'Times New Roman',serif" font-size="31" font-style="italic" letter-spacing="2">Kawaisa Lab</text>
  <g fill="#d77798" opacity=".9">
    <path d="M837 83c11-22 41-12 35 13-4 16-22 27-35 39-13-12-31-23-35-39-6-25 24-35 35-13z"/>
    <circle cx="872" cy="199" r="8"/>
    <circle cx="897" cy="183" r="5"/>
    <path d="M101 206l8 18 19 4-16 12 3 19-16-10-17 9 5-19-15-13 19-2z"/>
  </g>
</svg>
