<svg xmlns="http://www.w3.org/2000/svg" width="960" height="220" viewBox="0 0 960 220" role="img" aria-label="ファッションハナコ 可愛さラボ">
  <defs>
    <linearGradient id="quietBg" x1="68" y1="38" x2="884" y2="174" gradientUnits="userSpaceOnUse">
      <stop offset="0" stop-color="#ffffff" stop-opacity=".86"/>
      <stop offset=".62" stop-color="#fffafb" stop-opacity=".82"/>
      <stop offset="1" stop-color="#f8e8ee" stop-opacity=".78"/>
    </linearGradient>
    <filter id="softShadow" x="-8%" y="-20%" width="116%" height="150%">
      <feDropShadow dx="0" dy="8" stdDeviation="9" flood-color="#50343c" flood-opacity=".10"/>
    </filter>
  </defs>
  <rect x="50" y="46" width="860" height="128" rx="64" fill="url(#quietBg)" filter="url(#softShadow)"/>
  <rect x="62" y="58" width="836" height="104" rx="52" fill="none" stroke="#d9bdc6" stroke-width="3" opacity=".78"/>
  <circle cx="122" cy="110" r="23" fill="none" stroke="#9a6676" stroke-width="5" opacity=".82"/>
  <path d="M139 127l22 22" fill="none" stroke="#9a6676" stroke-width="5" stroke-linecap="round" opacity=".82"/>
  <text x="204" y="102" fill="#7d5864" font-family="'Yu Gothic','Hiragino Sans',Meiryo,sans-serif" font-size="28" font-weight="700" letter-spacing="3" opacity=".9">検索</text>
  <text x="298" y="103" fill="#6f4a55" font-family="'Yu Mincho','Hiragino Mincho ProN','Yu Gothic',serif" font-size="41" font-weight="700" letter-spacing="4">ファッションハナコ</text>
  <path d="M294 124h350" fill="none" stroke="#e7c7d1" stroke-width="8" stroke-linecap="round" opacity=".45"/>
  <text x="298" y="145" fill="#4f3a41" font-family="'Yu Gothic','Hiragino Sans',Meiryo,sans-serif" font-size="34" font-weight="800" letter-spacing="5">可愛さラボ</text>
  <text x="664" y="145" fill="#9a6676" font-family="Georgia,'Times New Roman',serif" font-size="20" font-style="italic" letter-spacing="2" opacity=".86">Kawaisa Lab</text>
  <g fill="#c9879a" opacity=".62">
    <path d="M824 88c7-14 27-8 23 9-3 10-15 17-23 25-9-8-21-15-24-25-4-17 16-23 24-9z"/>
    <circle cx="855" cy="127" r="5"/>
  </g>
</svg>
