<svg xmlns="http://www.w3.org/2000/svg" viewBox="0 0 96 96" role="img" aria-label="新規コーディネート作成">
  <rect x="6" y="6" width="84" height="84" rx="26" fill="#f6efff"/>
  <path d="M48 20c-12 0-22 10-22 22v34h44V42c0-12-10-22-22-22Z" fill="#fff" stroke="#9b6bb2" stroke-width="3"/>
  <path d="M36 42c8 6 16 6 24 0M36 56h24M38 68h20" stroke="#6d4d58" stroke-width="4" stroke-linecap="round"/>
  <path d="M26 27l9-8 9 8-9 9-9-9ZM52 27l9-8 9 8-9 9-9-9Z" fill="#ffd3e2" stroke="#b85d83" stroke-width="2"/>
  <path d="M75 55l4 8 8 4-8 4-4 8-4-8-8-4 8-4 4-8Z" fill="#e4c6f4"/>
</svg>
